<?xml version="1.0" standalone="no"?>
<!DOCTYPE svg PUBLIC "-//W3C//DTD SVG 20010904//EN"
 "http://www.w3.org/TR/2001/REC-SVG-20010904/DTD/svg10.dtd">
<svg version="1.0" xmlns="http://www.w3.org/2000/svg"
 width="600.000000pt" height="600.000000pt" viewBox="0 0 600.000000 600.000000"
 preserveAspectRatio="xMidYMid meet">

<g transform="translate(0.000000,600.000000) scale(0.100000,-0.100000)"
fill="#000000" stroke="none">
<path d="M3306 5074 c-164 -36 -296 -106 -414 -218 -214 -202 -307 -482 -257
-771 9 -49 27 -118 42 -154 14 -36 210 -421 436 -856 225 -434 422 -818 438
-853 60 -133 99 -312 99 -457 0 -81 -22 -238 -44 -310 -29 -93 13 -79 124 43
81 87 140 189 180 310 29 85 34 113 38 232 5 157 -14 260 -72 384 -18 40 -210
414 -427 832 -216 417 -403 784 -416 814 -30 74 -38 164 -23 245 15 77 19 79
110 33 117 -58 160 -113 299 -383 232 -450 240 -463 290 -493 72 -42 124 -37
249 26 56 29 102 54 102 57 0 12 -417 807 -448 855 -49 75 -154 179 -231 229
l-63 41 28 11 c46 17 164 23 226 10 89 -19 176 -67 243 -136 54 -54 78 -96
229 -390 93 -180 182 -343 198 -361 37 -42 105 -68 157 -61 43 5 231 96 231
111 0 21 -407 796 -453 864 -52 76 -136 160 -213 213 -61 42 -195 104 -269
124 -87 24 -302 29 -389 9z"/>
<path d="M2291 4522 c-100 -102 -155 -194 -202 -332 -28 -83 -33 -112 -37
-230 -5 -157 14 -260 72 -384 18 -40 210 -414 427 -832 216 -417 403 -784 416
-814 30 -74 38 -164 23 -245 -15 -77 -19 -79 -110 -33 -117 58 -160 113 -299
383 -232 450 -240 463 -290 493 -72 42 -124 37 -248 -26 -57 -29 -103 -54
-103 -57 0 -12 417 -807 448 -855 49 -75 154 -179 231 -229 l63 -41 -28 -11
c-46 -17 -164 -23 -226 -10 -89 19 -176 67 -243 136 -54 54 -78 96 -229 390
-93 180 -182 343 -198 361 -37 42 -105 68 -157 61 -43 -5 -231 -96 -231 -111
0 -21 407 -796 453 -864 84 -123 194 -214 340 -282 113 -53 183 -70 317 -77
242 -12 454 66 628 231 245 233 332 576 227 892 -13 40 -212 434 -441 875
-229 442 -429 832 -445 867 -60 133 -99 312 -99 457 0 81 22 238 44 309 29 94
5 89 -103 -22z"/>
</g>
</svg>
